<svg width="26" height="26" viewBox="0 0 26 26" fill="none" xmlns="http://www.w3.org/2000/svg">
<path d="M11.2883 15.7183L11.2883 12.5746" stroke="#666666" stroke-width="1.2" stroke-linecap="round"/>
<path d="M15.479 15.7183L15.479 12.5746" stroke="#666666" stroke-width="1.2" stroke-linecap="round"/>
<path d="M3.95459 7.33521H22.8126V7.33521C21.7463 7.33521 21.2131 7.33521 20.8018 7.53332C20.3936 7.72989 20.0643 8.0592 19.8678 8.46733C19.6696 8.87865 19.6696 9.41184 19.6696 10.4782V16.9577C19.6696 18.8433 19.6696 19.7861 19.0839 20.3719C18.4981 20.9577 17.5553 20.9577 15.6696 20.9577H11.0976C9.21198 20.9577 8.26917 20.9577 7.68339 20.3719C7.0976 19.7861 7.0976 18.8433 7.0976 16.9577V10.4782C7.0976 9.41184 7.0976 8.87865 6.89949 8.46733C6.70291 8.0592 6.37361 7.72989 5.96548 7.53332C5.55415 7.33521 5.02096 7.33521 3.95459 7.33521V7.33521Z" stroke="#666666" stroke-width="1.5" stroke-linecap="round"/>
<path d="M11.3597 3.53201C11.4791 3.4206 11.7422 3.32216 12.1081 3.25195C12.474 3.18173 12.9224 3.14368 13.3837 3.14368C13.8449 3.14368 14.2933 3.18173 14.6592 3.25195C15.0252 3.32216 15.2882 3.4206 15.4076 3.53201" stroke="#666666" stroke-width="1.2" stroke-linecap="round"/>
</svg>
