<svg width="17" height="17" viewBox="0 0 17 17" fill="none" xmlns="http://www.w3.org/2000/svg">
<path d="M13.1399 6.98587C13.3557 6.98587 13.5596 6.88597 13.6917 6.71552C13.8237 6.54506 13.8698 6.32291 13.8167 6.11403C13.5995 5.26385 13.1566 4.48703 12.5364 3.86668L10.1023 1.4321C9.17899 0.508571 7.95112 0 6.64502 0H3.49154C1.56662 0 0 1.56693 0 3.49294V13.2732C0 15.1992 1.56662 16.7661 3.49223 16.7661H5.58757C5.97312 16.7661 6.28602 16.4531 6.28602 16.0675C6.28602 15.6819 5.97312 15.3689 5.58757 15.3689H3.49223C2.337 15.3689 1.39689 14.4286 1.39689 13.2732V3.49294C1.39689 2.33747 2.337 1.39717 3.49223 1.39717H6.64572C6.75957 1.39717 6.87272 1.40276 6.98447 1.41324V4.89011C6.98447 6.04557 7.92458 6.98587 9.07981 6.98587H13.1399ZM8.38136 4.89011V1.85754C8.64607 2.00984 8.89262 2.19845 9.11473 2.4206L11.5488 4.85518C11.7681 5.07454 11.956 5.32184 12.1097 5.5887H9.07981C8.69496 5.5887 8.38136 5.27503 8.38136 4.89011ZM16.1495 8.29852C15.3574 7.50632 13.9773 7.50632 13.186 8.29852L8.50149 12.9839C7.97417 13.5114 7.68291 14.2135 7.68291 14.9602V16.0682C7.68291 16.4538 7.99582 16.7668 8.38136 16.7668H9.4891C10.2357 16.7668 10.937 16.4755 11.4643 15.948L16.1488 11.2626C16.5448 10.8665 16.7627 10.3405 16.7627 9.78022C16.7627 9.21995 16.5448 8.69392 16.1495 8.29852ZM15.1612 10.2741L10.476 14.9595C10.2127 15.2236 9.86207 15.3689 9.4884 15.3689H9.07911V14.9595C9.07911 14.5865 9.22439 14.2358 9.4884 13.9717L14.1736 9.28632C14.4369 9.02225 14.8972 9.02225 15.1612 9.28632C15.2932 9.41765 15.3658 9.593 15.3658 9.78022C15.3658 9.96744 15.2932 10.1421 15.1612 10.2741Z" fill="#666666"/>
</svg>
